{
  "accessors": [
    {
      "bufferView": 1,
      "componentType": 5126,
      "count": 65532,
      "max": [
        4.168759822845459,
        1.2094299793243408,
        1.7457300424575806
      ],
      "min": [
        -1.3668700456619263,
        -1.3015400171279907,
        -3.9523699283599854
      ],
      "type": "VEC3"
    },
    {
      "bufferView": 1,
      "byteOffset": 786384,
      "componentType": 5126,
      "count": 65532,
      "max": [
        0.99998784065246582,
        1,
        0.99929076433181763
      ],
      "min": [
        -0.99999499320983887,
        -1,
        -0.99953621625900269
      ],
      "type": "VEC3"
    },
    {
      "bufferView": 0,
      "componentType": 5125,
      "count": 282636,
      "max": [
        65531
      ],
      "min": [
        0
      ],
      "type": "SCALAR"
    },
    {
      "bufferView": 1,
      "byteOffset": 1572768,
      "componentType": 5126,
      "count": 65532,
      "max": [
        4.1563801765441895,
        1.3182899951934814,
        2.9170899391174316
      ],
      "min": [
        0.80352002382278442,
        -1.3183300495147705,
        -1.6073299646377563
      ],
      "type": "VEC3"
    },
    {
      "bufferView": 1,
      "byteOffset": 2359152,
      "componentType": 5126,
      "count": 65532,
      "max": [
        0.99999648332595825,
        1,
        0.99842876195907593
      ],
      "min": [
        -0.99999088048934937,
        -1,
        -0.99979996681213379
      ],
      "type": "VEC3"
    },
    {
      "bufferView": 0,
      "byteOffset": 1130544,
      "componentType": 5125,
      "count": 282810,
      "max": [
        65531
      ],
      "min": [
        0
      ],
      "type": "SCALAR"
    },
    {
      "bufferView": 1,
      "byteOffset": 3145536,
      "componentType": 5126,
      "count": 65532,
      "max": [
        3.4347798824310303,
        1.318310022354126,
        3.906019926071167
      ],
      "min": [
        0.14490999281406403,
        -1.3183300495147705,
        0.92654001712799072
      ],
      "type": "VEC3"
    },
    {
      "bufferView": 1,
      "byteOffset": 3931920,
      "componentType": 5126,
      "count": 65532,
      "max": [
        0.99995070695877075,
        0.99999994039535522,
        0.99755966663360596
      ],
      "min": [
        -0.99995660781860352,
        -1,
        -0.9996340274810791
      ],
      "type": "VEC3"
    },
    {
      "bufferView": 0,
      "byteOffset": 2261784,
      "componentType": 5125,
      "count": 289251,
      "max": [
        65531
      ],
      "min": [
        0
      ],
      "type": "SCALAR"
    },
    {
      "bufferView": 1,
      "byteOffset": 4718304,
      "componentType": 5126,
      "count": 65532,
      "max": [
        2.5347700119018555,
        1.2264499664306641,
        4.2385201454162598
      ],
      "min": [
        -2.3331398963928223,
        -1.2262699604034424,
        1.4420499801635742
      ],
      "type": "VEC3"
    },
    {
      "bufferView": 1,
      "byteOffset": 5504688,
      "componentType": 5126,
      "count": 65532,
      "max": [
        0.99978858232498169,
        1,
        0.99999797344207764
      ],
      "min": [
        -0.99994075298309326,
        -1,
        -0.99998295307159424
      ],
      "type": "VEC3"
    },
    {
      "bufferView": 0,
      "byteOffset": 3418788,
      "componentType": 5125,
      "count": 284535,
      "max": [
        65531
      ],
      "min": [
        0
      ],
      "type": "SCALAR"
    },
    {
      "bufferView": 1,
      "byteOffset": 6291072,
      "componentType": 5126,
      "count": 65532,
      "max": [
        0.38326999545097351,
        1.0799399614334106,
        4.364799976348877
      ],
      "min": [
        -3.3821699619293213,
        -1.1127500534057617,
        0.71758002042770386
      ],
      "type": "VEC3"
    },
    {
      "bufferView": 1,
      "byteOffset": 7077456,
      "componentType": 5126,
      "count": 65532,
      "max": [
        0.99897575378417969,
        1,
        0.99999189376831055
      ],
      "min": [
        -0.99986273050308228,
        -1,
        -0.99995899200439453
      ],
      "type": "VEC3"
    },
    {
      "bufferView": 0,
      "byteOffset": 4556928,
      "componentType": 5125,
      "count": 283818,
      "max": [
        65531
      ],
      "min": [
        0
      ],
      "type": "SCALAR"
    },
    {
      "bufferView": 1,
      "byteOffset": 7863840,
      "componentType": 5126,
      "count": 65532,
      "max": [
        -0.54453998804092407,
        1.079319953918457,
        4.0414600372314453
      ],
      "min": [
        -3.9688899517059326,
        -0.98756998777389526,
        0.48205000162124634
      ],
      "type": "VEC3"
    },
    {
      "bufferView": 1,
      "byteOffset": 8650224,
      "componentType": 5126,
      "count": 65532,
      "max": [
        0.99993479251861572,
        1,
        0.99993866682052612
      ],
      "min": [
        -0.99998289346694946,
        -0.99999994039535522,
        -0.99982684850692749
      ],
      "type": "VEC3"
    },
    {
      "bufferView": 0,
      "byteOffset": 5692200,
      "componentType": 5125,
      "count": 286254,
      "max": [
        65531
      ],
      "min": [
        0
      ],
      "type": "SCALAR"
    },
    {
      "bufferView": 1,
      "byteOffset": 9436608,
      "componentType": 5126,
      "count": 65532,
      "max": [
        -1.377020001411438,
        1.4413599967956543,
        2.603410005569458
      ],
      "min": [
        -3.9695899486541748,
        -1.4380600452423096,
        -2.178149938583374
      ],
      "type": "VEC3"
    },
    {
      "bufferView": 1,
      "byteOffset": 10222992,
      "componentType": 5126,
      "count": 65532,
      "max": [
        0.99999994039535522,
        1,
        0.99994641542434692
      ],
      "min": [
        -0.99999606609344482,
        -1,
        -0.99974989891052246
      ],
      "type": "VEC3"
    },
    {
      "bufferView": 0,
      "byteOffset": 6837216,
      "componentType": 5125,
      "count": 285345,
      "max": [
        65531
      ],
      "min": [
        0
      ],
      "type": "SCALAR"
    },
    {
      "bufferView": 1,
      "byteOffset": 11009376,
      "componentType": 5126,
      "count": 65532,
      "max": [
        -1.5097700357437134,
        1.4413599967956543,
        0.52464002370834351
      ],
      "min": [
        -3.9388599395751953,
        -1.4411900043487549,
        -2.7248198986053467
      ],
      "type": "VEC3"
    },
    {
      "bufferView": 1,
      "byteOffset": 11795760,
      "componentType": 5126,
      "count": 65532,
      "max": [
        0.99999892711639404,
        1,
        0.99995005130767822
      ],
      "min": [
        -0.99999618530273438,
        -1,
        -0.99945992231369019
      ],
      "type": "VEC3"
    },
    {
      "bufferView": 0,
      "byteOffset": 7978596,
      "componentType": 5125,
      "count": 282696,
      "max": [
        65531
      ],
      "min": [
        0
      ],
      "type": "SCALAR"
    },
    {
      "bufferView": 1,
      "byteOffset": 12582144,
      "componentType": 5126,
      "count": 65532,
      "max": [
        0.070309996604919434,
        1.2579900026321411,
        -0.6946600079536438
      ],
      "min": [
        -3.6219699382781982,
        -1.2182999849319458,
        -3.8756399154663086
      ],
      "type": "VEC3"
    },
    {
      "bufferView": 1,
      "byteOffset": 13368528,
      "componentType": 5126,
      "count": 65532,
      "max": [
        0.9999549388885498,
        1,
        0.99852955341339111
      ],
      "min": [
        -0.99994981288909912,
        -1,
        -0.99750649929046631
      ],
      "type": "VEC3"
    },
    {
      "bufferView": 0,
      "byteOffset": 9109380,
      "componentType": 5125,
      "count": 282465,
      "max": [
        65531
      ],
      "min": [
        0
      ],
      "type": "SCALAR"
    },
    {
      "bufferView": 1,
      "byteOffset": 14154912,
      "componentType": 5126,
      "count": 65532,
      "max": [
        2.8302600383758545,
        1.1672899723052979,
        -1.4247100353240967
      ],
      "min": [
        -2.4302899837493896,
        -1.1664700508117676,
        -4.3515701293945312
      ],
      "type": "VEC3"
    },
    {
      "bufferView": 1,
      "byteOffset": 14941296,
      "componentType": 5126,
      "count": 65532,
      "max": [
        0.99968743324279785,
        1,
        0.99999737739562988
      ],
      "min": [
        -0.99934506416320801,
        -1,
        -0.99999880790710449
      ],
      "type": "VEC3"
    },
    {
      "bufferView": 0,
      "byteOffset": 10239240,
      "componentType": 5125,
      "count": 284100,
      "max": [
        65531
      ],
      "min": [
        0
      ],
      "type": "SCALAR"
    },
    {
      "bufferView": 1,
      "byteOffset": 15727680,
      "componentType": 5126,
      "count": 65532,
      "max": [
        2.9750199317932129,
        1.0641700029373169,
        -1.3993799686431885
      ],
      "min": [
        -1.032520055770874,
        -1.0648499727249146,
        -4.3515701293945312
      ],
      "type": "VEC3"
    },
    {
      "bufferView": 1,
      "byteOffset": 16514064,
      "componentType": 5126,
      "count": 65532,
      "max": [
        0.99742627143859863,
        1,
        0.99999654293060303
      ],
      "min": [
        -0.99979895353317261,
        -1,
        -0.99999576807022095
      ],
      "type": "VEC3"
    },
    {
      "bufferView": 0,
      "byteOffset": 11375640,
      "componentType": 5125,
      "count": 280518,
      "max": [
        65531
      ],
      "min": [
        0
      ],
      "type": "SCALAR"
    },
    {
      "bufferView": 1,
      "byteOffset": 17300448,
      "componentType": 5126,
      "count": 65532,
      "max": [
        3.2402300834655762,
        1.15093994140625,
        -0.95454001426696777
      ],
      "min": [
        0.25249999761581421,
        -1.0648499727249146,
        -4.117650032043457
      ],
      "type": "VEC3"
    },
    {
      "bufferView": 1,
      "byteOffset": 18086832,
      "componentType": 5126,
      "count": 65532,
      "max": [
        0.9996030330657959,
        1,
        0.99993574619293213
      ],
      "min": [
        -0.98613548278808594,
        -1,
        -0.99989944696426392
      ],
      "type": "VEC3"
    },
    {
      "bufferView": 0,
      "byteOffset": 12497712,
      "componentType": 5125,
      "count": 288465,
      "max": [
        65531
      ],
      "min": [
        0
      ],
      "type": "SCALAR"
    },
    {
      "bufferView": 1,
      "byteOffset": 18873216,
      "componentType": 5126,
      "count": 65532,
      "max": [
        3.7930400371551514,
        1.288390040397644,
        -0.5323299765586853
      ],
      "min": [
        0.8398900032043457,
        -1.2881100177764893,
        -3.5692400932312012
      ],
      "type": "VEC3"
    },
    {
      "bufferView": 1,
      "byteOffset": 19659600,
      "componentType": 5126,
      "count": 65532,
      "max": [
        0.99994701147079468,
        1,
        0.99995291233062744
      ],
      "min": [
        -0.9999660849571228,
        -1,
        -0.99974387884140015
      ],
      "type": "VEC3"
    },
    {
      "bufferView": 0,
      "byteOffset": 13651572,
      "componentType": 5125,
      "count": 297324,
      "max": [
        65531
      ],
      "min": [
        0
      ],
      "type": "SCALAR"
    },
    {
      "bufferView": 1,
      "byteOffset": 20445984,
      "componentType": 5126,
      "count": 65532,
      "max": [
        4.143740177154541,
        1.3053200244903564,
        0.032519999891519547
      ],
      "min": [
        1.319100022315979,
        -1.3057800531387329,
        -2.5921700000762939
      ],
      "type": "VEC3"
    },
    {
      "bufferView": 1,
      "byteOffset": 21232368,
      "componentType": 5126,
      "count": 65532,
      "max": [
        0.99993741512298584,
        1,
        0.99892622232437134
      ],
      "min": [
        -0.99998670816421509,
        -1,
        -0.99769186973571777
      ],
      "type": "VEC3"
    },
    {
      "bufferView": 0,
      "byteOffset": 14840868,
      "componentType": 5125,
      "count": 279129,
      "max": [
        65531
      ],
      "min": [
        0
      ],
      "type": "SCALAR"
    },
    {
      "bufferView": 1,
      "byteOffset": 22018752,
      "componentType": 5126,
      "count": 2605,
      "max": [
        4.1631498336791992,
        1.0844199657440186,
        0.02525000087916851
      ],
      "min": [
        1.7367299795150757,
        -1.0905300378799438,
        -0.33059999346733093
      ],
      "type": "VEC3"
    },
    {
      "bufferView": 1,
      "byteOffset": 22050012,
      "componentType": 5126,
      "count": 2605,
      "max": [
        0.99998658895492554,
        0.99999862909317017,
        0.99783778190612793
      ],
      "min": [
        -0.99993425607681274,
        -0.99999088048934937,
        -0.99812012910842896
      ],
      "type": "VEC3"
    },
    {
      "bufferView": 0,
      "byteOffset": 15957384,
      "componentType": 5125,
      "count": 6750,
      "max": [
        2604
      ],
      "min": [
        0
      ],
      "type": "SCALAR"
    }
  ],
  "asset": {
    "extras": {
      "author": "Aiekick (https://sketchfab.com/Aiekick)",
      "license": "CC-BY-4.0 (http://creativecommons.org/licenses/by/4.0/)",
      "source": "https://sketchfab.com/3d-models/julia-revolute-ten-overstepped-849461b9a1914e448edd9cbbc70cfd1a",
      "title": "Julia Revolute Ten OverStepped"
    },
    "generator": "Sketchfab-6.9.0",
    "version": "2.0"
  },
  "bufferViews": [
    {
      "buffer": 0,
      "byteLength": 15984384,
      "byteOffset": 0,
      "name": "floatBufferViews",
      "target": 34963
    },
    {
      "buffer": 0,
      "byteLength": 22081272,
      "byteOffset": 15984384,
      "byteStride": 12,
      "name": "floatBufferViews",
      "target": 34962
    }
  ],
  "buffers": [
    {
      "byteLength": 38065656,
      "uri": "scene.bin"
    }
  ],
  "materials": [
    {
      "doubleSided": true,
      "name": "Scene_-_Root",
      "pbrMetallicRoughness": {
        "baseColorFactor": [
          1,
          1,
          1,
          1
        ],
        "metallicFactor": 0,
        "roughnessFactor": 0.59999999999999998
      }
    }
  ],
  "meshes": [
    {
      "primitives": [
        {
          "attributes": {
            "NORMAL": 1,
            "POSITION": 0
          },
          "indices": 2,
          "material": 0,
          "mode": 4
        }
      ]
    },
    {
      "primitives": [
        {
          "attributes": {
            "NORMAL": 4,
            "POSITION": 3
          },
          "indices": 5,
          "material": 0,
          "mode": 4
        }
      ]
    },
    {
      "primitives": [
        {
          "attributes": {
            "NORMAL": 7,
            "POSITION": 6
          },
          "indices": 8,
          "material": 0,
          "mode": 4
        }
      ]
    },
    {
      "primitives": [
        {
          "attributes": {
            "NORMAL": 10,
            "POSITION": 9
          },
          "indices": 11,
          "material": 0,
          "mode": 4
        }
      ]
    },
    {
      "primitives": [
        {
          "attributes": {
            "NORMAL": 13,
            "POSITION": 12
          },
          "indices": 14,
          "material": 0,
          "mode": 4
        }
      ]
    },
    {
      "primitives": [
        {
          "attributes": {
            "NORMAL": 16,
            "POSITION": 15
          },
          "indices": 17,
          "material": 0,
          "mode": 4
        }
      ]
    },
    {
      "primitives": [
        {
          "attributes": {
            "NORMAL": 19,
            "POSITION": 18
          },
          "indices": 20,
          "material": 0,
          "mode": 4
        }
      ]
    },
    {
      "primitives": [
        {
          "attributes": {
            "NORMAL": 22,
            "POSITION": 21
          },
          "indices": 23,
          "material": 0,
          "mode": 4
        }
      ]
    },
    {
      "primitives": [
        {
          "attributes": {
            "NORMAL": 25,
            "POSITION": 24
          },
          "indices": 26,
          "material": 0,
          "mode": 4
        }
      ]
    },
    {
      "primitives": [
        {
          "attributes": {
            "NORMAL": 28,
            "POSITION": 27
          },
          "indices": 29,
          "material": 0,
          "mode": 4
        }
      ]
    },
    {
      "primitives": [
        {
          "attributes": {
            "NORMAL": 31,
            "POSITION": 30
          },
          "indices": 32,
          "material": 0,
          "mode": 4
        }
      ]
    },
    {
      "primitives": [
        {
          "attributes": {
            "NORMAL": 34,
            "POSITION": 33
          },
          "indices": 35,
          "material": 0,
          "mode": 4
        }
      ]
    },
    {
      "primitives": [
        {
          "attributes": {
            "NORMAL": 37,
            "POSITION": 36
          },
          "indices": 38,
          "material": 0,
          "mode": 4
        }
      ]
    },
    {
      "primitives": [
        {
          "attributes": {
            "NORMAL": 40,
            "POSITION": 39
          },
          "indices": 41,
          "material": 0,
          "mode": 4
        }
      ]
    },
    {
      "primitives": [
        {
          "attributes": {
            "NORMAL": 43,
            "POSITION": 42
          },
          "indices": 44,
          "material": 0,
          "mode": 4
        }
      ]
    }
  ],
  "nodes": [
    {
      "children": [
        1
      ],
      "name": "RootNode (gltf orientation matrix)",
      "rotation": [
        -0.70710678118654746,
        -0,
        -0,
        0.70710678118654757
      ]
    },
    {
      "children": [
        2
      ],
      "matrix": [
        1,
        0,
        0,
        0,
        0,
        2.2204460492503131e-16,
        1,
        0,
        0,
        -1,
        2.2204460492503131e-16,
        0,
        0,
        0.006703495979309082,
        0.0065325498580932617,
        1
      ],
      "name": "RootNode (model correction matrix)"
    },
    {
      "children": [
        3,
        4,
        5,
        6,
        7,
        8,
        9,
        10,
        11,
        12,
        13,
        14,
        15,
        16,
        17
      ],
      "name": "Geode"
    },
    {
      "mesh": 0,
      "name": ""
    },
    {
      "mesh": 1,
      "name": ""
    },
    {
      "mesh": 2,
      "name": ""
    },
    {
      "mesh": 3,
      "name": ""
    },
    {
      "mesh": 4,
      "name": ""
    },
    {
      "mesh": 5,
      "name": ""
    },
    {
      "mesh": 6,
      "name": ""
    },
    {
      "mesh": 7,
      "name": ""
    },
    {
      "mesh": 8,
      "name": ""
    },
    {
      "mesh": 9,
      "name": ""
    },
    {
      "mesh": 10,
      "name": ""
    },
    {
      "mesh": 11,
      "name": ""
    },
    {
      "mesh": 12,
      "name": ""
    },
    {
      "mesh": 13,
      "name": ""
    },
    {
      "mesh": 14,
      "name": ""
    }
  ],
  "scene": 0,
  "scenes": [
    {
      "name": "OSG_Scene",
      "nodes": [
        0
      ]
    }
  ]
}

